<svg xmlns="http://www.w3.org/2000/svg" viewBox="0 0 560 262" width="560" height="262" role="img"><title>手順 ⑥ 肩サーボ 2 個をブラケットに固定する</title><rect width="560" height="262" fill="#ffffff"/><rect x="0.0" y="0.0" width="560.0" height="52.0" rx="0" fill="#f0f3f6" stroke="none" stroke-width="0"/><line x1="0.0" y1="52.0" x2="560.0" y2="52.0" stroke="#d5dbe2" stroke-width="1.2" stroke-linecap="round"/><circle cx="30.0" cy="26.0" r="15.0" fill="#c9372c" stroke="none" stroke-width="0"/><text x="30.0" y="32.0" font-family="system-ui,-apple-system,'Hiragino Sans','Noto Sans JP','Noto Sans CJK JP','Yu Gothic','Meiryo',sans-serif" font-size="15" fill="#ffffff" text-anchor="middle" font-weight="700">6</text><text x="54.0" y="26.0" font-family="system-ui,-apple-system,'Hiragino Sans','Noto Sans JP','Noto Sans CJK JP','Yu Gothic','Meiryo',sans-serif" font-size="14.5" fill="#1f2328" text-anchor="start" font-weight="700">肩サーボ 2 個をブラケットに固定する</text><text x="54.0" y="44.0" font-family="system-ui,-apple-system,'Hiragino Sans','Noto Sans JP','Noto Sans CJK JP','Yu Gothic','Meiryo',sans-serif" font-size="10.5" fill="#6a737d" text-anchor="start" font-weight="400">公式組立説明書 ⑥ページ（6 ページ目）を併せて参照</text><text x="24.0" y="78.0" font-family="system-ui,-apple-system,'Hiragino Sans','Noto Sans JP','Noto Sans CJK JP','Yu Gothic','Meiryo',sans-serif" font-size="12" fill="#6a737d" text-anchor="start" font-weight="700">使う部品</text><path d="M57.0,147 L57.0,123 L65.0,123 L65.0,139 L101.0,139 L101.0,123 L109.0,123 L109.0,147 z" fill="#d7dde5" stroke="#1f2328" stroke-width="1.5" stroke-linecap="round" stroke-linejoin="round"/><text x="83.0" y="176.0" font-family="system-ui,-apple-system,'Hiragino Sans','Noto Sans JP','Noto Sans CJK JP','Yu Gothic','Meiryo',sans-serif" font-size="10.5" fill="#1f2328" text-anchor="middle" font-weight="400">サーボ用ブラケット</text><rect x="171.0" y="118.0" width="48.0" height="28.0" rx="2" fill="#3a3f45" stroke="#1f2328" stroke-width="1.5"/><rect x="173.0" y="123.0" width="44.0" height="9.0" rx="0" fill="#7a2f52" stroke="none" stroke-width="0"/><text x="195.0" y="130.5" font-family="system-ui,-apple-system,'Hiragino Sans','Noto Sans JP','Noto Sans CJK JP','Yu Gothic','Meiryo',sans-serif" font-size="7.5" fill="#ffffff" text-anchor="middle" font-weight="700">MG90S</text><circle cx="181.0" cy="118.0" r="7.5" fill="#9aa5b1" stroke="#1f2328" stroke-width="1.4"/><circle cx="181.0" cy="118.0" r="3.0" fill="#d7dde5" stroke="#1f2328" stroke-width="1.0"/><rect x="165.0" y="121.0" width="6.0" height="8.0" rx="0" fill="#3a3f45" stroke="#1f2328" stroke-width="1.2"/><rect x="219.0" y="121.0" width="6.0" height="8.0" rx="0" fill="#3a3f45" stroke="#1f2328" stroke-width="1.2"/><path d="M225.0,132.0 q14,2 22,-6" fill="none" stroke="#d9760f" stroke-width="2.0" stroke-linecap="round" stroke-linejoin="round"/><path d="M225.0,135.2 q14,2 22,-3" fill="none" stroke="#c0392b" stroke-width="2.0" stroke-linecap="round" stroke-linejoin="round"/><path d="M225.0,138.4 q14,2 22,0" fill="none" stroke="#8b4a10" stroke-width="2.0" stroke-linecap="round" stroke-linejoin="round"/><circle cx="238.0" cy="106.0" r="11.0" fill="#c9372c" stroke="#ffffff" stroke-width="1.6"/><text x="238.0" y="110.0" font-family="system-ui,-apple-system,'Hiragino Sans','Noto Sans JP','Noto Sans CJK JP','Yu Gothic','Meiryo',sans-serif" font-size="10.5" fill="#ffffff" text-anchor="middle" font-weight="700">×2</text><text x="201.0" y="176.0" font-family="system-ui,-apple-system,'Hiragino Sans','Noto Sans JP','Noto Sans CJK JP','Yu Gothic','Meiryo',sans-serif" font-size="10.5" fill="#1f2328" text-anchor="middle" font-weight="400">MG90S</text><rect x="301.6" y="125.0" width="11.0" height="13.0" rx="1.5" fill="#d7dde5" stroke="#1f2328" stroke-width="1.4"/><circle cx="307.1" cy="131.5" r="3.2" fill="#9aa5b1" stroke="#1f2328" stroke-width="1.0"/><rect x="312.6" y="128.0" width="23.9" height="7.0" rx="0" fill="#d7dde5" stroke="#1f2328" stroke-width="1.4"/><line x1="315.6" y1="128.6" x2="313.6" y2="134.4" stroke="#9aa5b1" stroke-width="0.9" stroke-linecap="round"/><line x1="320.5" y1="128.6" x2="318.5" y2="134.4" stroke="#9aa5b1" stroke-width="0.9" stroke-linecap="round"/><line x1="325.5" y1="128.6" x2="323.5" y2="134.4" stroke="#9aa5b1" stroke-width="0.9" stroke-linecap="round"/><line x1="330.5" y1="128.6" x2="328.5" y2="134.4" stroke="#9aa5b1" stroke-width="0.9" stroke-linecap="round"/><circle cx="356.0" cy="106.0" r="11.0" fill="#c9372c" stroke="#ffffff" stroke-width="1.6"/><text x="356.0" y="110.0" font-family="system-ui,-apple-system,'Hiragino Sans','Noto Sans JP','Noto Sans CJK JP','Yu Gothic','Meiryo',sans-serif" font-size="10.5" fill="#ffffff" text-anchor="middle" font-weight="700">×4</text><text x="319.0" y="176.0" font-family="system-ui,-apple-system,'Hiragino Sans','Noto Sans JP','Noto Sans CJK JP','Yu Gothic','Meiryo',sans-serif" font-size="10.5" fill="#1f2328" text-anchor="middle" font-weight="400">M2×8 ボルト</text><polygon points="437.0,121.0 446.5,126.5 446.5,137.5 437.0,143.0 427.5,137.5 427.5,126.5" fill="#d7dde5" stroke="#1f2328" stroke-width="1.4" stroke-linejoin="round"/><circle cx="437.0" cy="132.0" r="5.1" fill="#ffffff" stroke="#1f2328" stroke-width="1.2"/><circle cx="474.0" cy="106.0" r="11.0" fill="#c9372c" stroke="#ffffff" stroke-width="1.6"/><text x="474.0" y="110.0" font-family="system-ui,-apple-system,'Hiragino Sans','Noto Sans JP','Noto Sans CJK JP','Yu Gothic','Meiryo',sans-serif" font-size="10.5" fill="#ffffff" text-anchor="middle" font-weight="700">×4</text><text x="437.0" y="176.0" font-family="system-ui,-apple-system,'Hiragino Sans','Noto Sans JP','Noto Sans CJK JP','Yu Gothic','Meiryo',sans-serif" font-size="10.5" fill="#1f2328" text-anchor="middle" font-weight="400">M2 ナット</text><rect x="24.0" y="210.0" width="512.0" height="36.0" rx="5" fill="#fff8f0" stroke="#e0c9a6" stroke-width="1.0"/><text x="38.0" y="233.0" font-family="system-ui,-apple-system,'Hiragino Sans','Noto Sans JP','Noto Sans CJK JP','Yu Gothic','Meiryo',sans-serif" font-size="11" fill="#1f2328" text-anchor="start" font-weight="400">▶ サーボホーンはまだ付けない（手順 ⑫ まで待つ）</text></svg>
